<svg width="202" height="223" viewBox="0 0 202 223" fill="none" xmlns="http://www.w3.org/2000/svg">
<rect x="0.5" y="1.33691" width="201" height="220.473" fill="#EFEAEA"/>
<rect x="0.5" y="1.33691" width="201" height="220.473" stroke="#EFEAEA"/>
<path d="M33.8083 165.474C36.4646 168.394 37.7946 172.461 37.4361 176.567C36.6326 185.768 34.7821 195.344 32.4055 204.239C50.016 199.776 60.7714 194.6 65.6603 191.883C68.4354 190.342 71.6319 189.977 74.6368 190.861C82.942 193.302 91.7934 194.626 101 194.626C151.444 194.626 189.375 155.764 189.375 111.573C189.375 67.3832 151.444 28.521 101 28.521C50.5556 28.521 12.625 67.3832 12.625 111.573C12.625 131.895 20.4185 150.752 33.8083 165.474ZM27.5843 219.527C27.4993 219.545 27.4141 219.564 27.3288 219.582C26.1695 219.833 24.9877 220.079 23.7832 220.321C22.0937 220.66 20.3596 220.99 18.5805 221.31C16.0679 221.761 14.1446 218.879 15.1371 216.308C15.7855 214.629 16.4248 212.869 17.0475 211.043C17.4432 209.884 17.8322 208.698 18.2127 207.491C18.2291 207.439 18.2454 207.387 18.2618 207.334C21.3896 197.372 23.9366 185.921 24.8685 175.248C9.38115 158.22 0 135.948 0 111.573C0 58.0601 45.2192 14.679 101 14.679C156.781 14.679 202 58.0601 202 111.573C202 165.087 156.781 208.468 101 208.468C90.6885 208.468 80.7378 206.985 71.3671 204.231C64.8088 207.874 50.681 214.507 27.5843 219.527Z" fill="#7F7373"/>
<path d="M89.2052 94.4175C85.4547 88.0809 78.9446 83.8893 71.5417 83.8893C59.9207 83.8893 50.5 94.2181 50.5 106.959C50.5 119.701 59.9207 130.029 71.5417 130.029C75.6987 130.029 79.5742 128.708 82.8377 126.427C81.1781 131.81 78.1032 137.551 73.0177 143.326C70.9998 145.618 71.0582 149.269 73.1482 151.481C75.2383 153.694 78.5685 153.63 80.5864 151.338C99.3628 130.017 96.9204 106.847 89.2052 94.4175Z" fill="#7F7373"/>
<path d="M139.705 94.4175C135.955 88.0809 129.445 83.8893 122.042 83.8893C110.421 83.8893 101 94.2181 101 106.959C101 119.701 110.421 130.029 122.042 130.029C126.199 130.029 130.074 128.708 133.338 126.427C131.678 131.81 128.603 137.551 123.518 143.326C121.5 145.618 121.558 149.269 123.648 151.481C125.738 153.694 129.068 153.63 131.086 151.338C149.863 130.017 147.42 106.847 139.705 94.4175Z" fill="#7F7373"/>
</svg>
